<mxfile host="65bd71144e">
    <diagram id="CmxPOEaZ5PtlBZMSDMEB" name="Workflow">
        <mxGraphModel dx="6744" dy="4612" grid="1" gridSize="25" guides="1" tooltips="1" connect="1" arrows="1" fold="1" page="1" pageScale="1" pageWidth="1200" pageHeight="1600" math="0" shadow="0">
            <root>
                <mxCell id="0"/>
                <mxCell id="1" parent="0"/>
                <mxCell id="6" style="edgeStyle=none;shape=connector;rounded=1;html=1;exitX=1;exitY=0.5;exitDx=0;exitDy=0;entryX=0;entryY=0.5;entryDx=0;entryDy=0;labelBackgroundColor=default;strokeColor=default;strokeWidth=4;fontFamily=Helvetica;fontSize=40;fontColor=#FFFFFF;endArrow=classic;startSize=12;endSize=12;" parent="1" source="2" target="3" edge="1">
                    <mxGeometry relative="1" as="geometry"/>
                </mxCell>
                <mxCell id="2" value="Speech To Text" style="rounded=1;whiteSpace=wrap;html=1;strokeWidth=4;fontSize=40;fontStyle=1;glass=1;fillColor=#dae8fc;strokeColor=#6c8ebf;labelBorderColor=none;" parent="1" vertex="1">
                    <mxGeometry width="600" height="200" as="geometry"/>
                </mxCell>
                <mxCell id="5" style="edgeStyle=none;html=1;exitX=1;exitY=0.5;exitDx=0;exitDy=0;fontFamily=Helvetica;fontSize=40;fontColor=#FFFFFF;strokeWidth=4;endSize=12;startSize=12;" parent="1" source="3" target="4" edge="1">
                    <mxGeometry relative="1" as="geometry"/>
                </mxCell>
                <mxCell id="3" value="Text To Command" style="rounded=1;whiteSpace=wrap;html=1;strokeWidth=4;fontSize=40;fontStyle=1;glass=1;fillColor=#d5e8d4;strokeColor=#82b366;labelBorderColor=none;" parent="1" vertex="1">
                    <mxGeometry x="1000" width="600" height="200" as="geometry"/>
                </mxCell>
                <mxCell id="14" style="edgeStyle=none;shape=connector;rounded=1;html=1;exitX=1;exitY=0.5;exitDx=0;exitDy=0;entryX=0;entryY=0.5;entryDx=0;entryDy=0;labelBackgroundColor=default;strokeColor=default;strokeWidth=4;fontFamily=Helvetica;fontSize=40;fontColor=#FFFFFF;endArrow=classic;startSize=12;endSize=12;" parent="1" source="4" target="10" edge="1">
                    <mxGeometry relative="1" as="geometry"/>
                </mxCell>
                <mxCell id="4" value="Command Executor" style="rounded=1;whiteSpace=wrap;html=1;strokeWidth=4;fontSize=40;fontStyle=1;glass=1;fillColor=#e1d5e7;strokeColor=#9673a6;labelBorderColor=none;" parent="1" vertex="1">
                    <mxGeometry x="2000" width="600" height="200" as="geometry"/>
                </mxCell>
                <mxCell id="7" value="" style="shape=image;verticalLabelPosition=bottom;labelBackgroundColor=default;verticalAlign=top;aspect=fixed;imageAspect=0;image=data:image/png,iVBORw0KGgoAAAANSUhEUgAAAgAAAAIACAMAAADDpiTIAAAAA3NCSVQICAjb4U/gAAAACXBIWXMAAQPhAAED4QE3oN8RAAAAGXRFWHRTb2Z0d2FyZQB3d3cuaW5rc2NhcGUub3Jnm+48GgAAAvRQTFRF////AAAAAAAAAAAAAAAAAAAAAAAAAAAAAAAAAAAAAAAAAAAAAAAAAAAAAAAAAAAAAAAAAAAAAAAAAAAAAAAAAAAAAAAAAAAAAAAAAAAAAAAAAAAAAAAAAAAAAAAAAAAAAAAAAAAAAAAAAAAAAAAAAAAAAAAAAAAAAAAAAAAAAAAAAAAAAAAAAAAAAAAAAAAAAAAAAAAAAAAAAAAAAAAAAAAAAAAAAAAAAAAAAAAAAAAAAAAAAAAAAAAAAAAAAAAAAAAAAAAAAAAAAAAAAAAAAAAAAAAAAAAAAAAAAAAAAAAAAAAAAAAAAAAAAAAAAAAAAAAAAAAAAAAAAAAAAAAAAAAAAAAAAAAAAAAAAAAAAAAAAAAAAAAAAAAAAAAAAAAAAAAAAAAAAAAAAAAAAAAAAAAAAAAAAAAAAAAAAAAAAAAAAAAAAAAAAAAAAAAAAAAAAAAAAAAAAAAAAAAAAAAAAAAAAAAAAAAAAAAAAAAAAAAAAAAAAAAAAAAAAAAAAAAAAAAAAAAAAAAAAAAAAAAAAAAAAAAAAAAAAAAAAAAAAAAAAAAAAAAAAAAAAAAAAAAAAAAAAAAAAAAAAAAAAAAAAAAAAAAAAAAAAAAAAAAAAAAAAAAAAAAAAAAAAAAAAAAAAAAAAAAAAAAAAAAAAAAAAAAAAAAAAAAAAAAAAAAAAAAAAAAAAAAAAAAAAAAAAAAAAAAAAAAAAAAAAAAAAAAAAAAAAAAAAAAAAAAAAAAAAAAAAAAAAAAAAAAAAAAAAAAAAAAAAAAAAAAAAAAAAAAAAAAAAAAAAAAAAAAAAAAAAAAAAAAAAAAAAAAAAAAAAAAAAAAAAAAAAAAAAAAAAAAAAAAAAAAAAAAAAAAAAAAAAAAAAAAAAAAAAAAAAAAAAAAAAAAAAAAAAAAAAAAAAAAAAAAAAAAAAAAAAAAAAAAAAAAAAAAAAAAAAAAAAAAAAAAAAAAAAAAAAAAAAAAAAAAAAAAAAAAAAAAAAAAAAAAAAAAAAAAAxRfo/QAAAPt0Uk5TAAECAwQFBgcICQoLDA0ODxAREhMUFRYXGBkaGxwdHh8gISIjJCUmJygpKissLS4vMDEyMzQ1Njc4OTo7PD0+P0BBQkNERUZHSElKS0xNTk9QUVJTVFVWV1hZWltcXV5fYGFiY2RlZmdoaWprbG1ub3BxcnN0dXZ3eXp7fH1+f4CBgoOEhYaHiImKi4yNjo+QkZKTlJWWl5iZmpucnZ6foKGio6SlpqeoqaqrrK2ur7CxsrO0tba3ubq7vL2/wMHDxMXGx8jJysvMzc7P0NHS09TV1tfY2drb3N3e3+Dh4uPk5ebn6Onq6+zt7u/w8fLz9PX29/j5+vv8/f7DdvknAAAQW0lEQVR42u2dZ3hVVRZA90tCEnooEpoUpWOhOIoZgiMWUJpSFMuABRRFREUEZmQsKCJFlF6M4AAqimIDQQMiVqQrUqTIABIhCgESUs6f+TGoQN57954HPCb7rPV/m+87axGTl7PvFQEAAAAAAAAAAAAAAAAAAAAAAAAAAAAAAAAAAAAAAAAAAAAAgCJJfM3Lu/R9CIogfbum1Iw/FfeNBi9ck2GgKFOQsXrBoPoRyI9JHbWJ49PChhEpMVb660zjX74yfp5c27f+SuOPcmD6yBlT3pf+kkMPcFg6yRyU6Kk/0Gc3B6WXHT09/JeazyHpZnbYbwK11nBC2vmqamj/qXs5H/3sujSU/1788O8ER24P7n8IR+MKjwTz36WAg3GF/PaF/TfJ4lzc4UDjk/0nb+dUXGJLhRP9J3zGmbhFerETApjOibjG+OP9t+A8nKOg2XEBLOU83GPxn/7bcRoucu0ft3/4C4CTrAwcC6AHZ+Emxz4STtjGUbjJtgQREenISbhKRxERSeMgXCVNRCSGSwDOsjdGRFpyDu7SUkRGcgzuMlJENkY6/OucXm0vrFCpyfX3zrW5SL5nWs9rGpWr0rxDvw+OmIjmPszG3Glio0iDCEffuva4PyclXOfzNnHu5ON3lEp29vsZ9Ilzpbrxx8vTRAPpHNHcpy1OvlCQsszH2Lx6J491WO/ny82te/LcDd8h73TQWR6IYCqnV7A7Zb1zPMb2twkyFfu055f7pXWwuWHYOw08IM/aD+1JCX6rtGX4XyjX1wk+1u1Q+C+37rzgc90P4++UeVZmWM9sqx5yr2RnmLHlpUONNQv7M2Toucu4xnjKzJBFtiOHLg69WdI89D/KHcmhx9rnm4jmuMh8yiySdbYj3cLtlt0UMpsm4cYGmsjmHsfgKbJO9ltOvBJ+uzTU/1H6hx9LN5HNLUfhqbFfLAcOVw9vpEbwD2m2eDys6JIQ38y95vgc+1SxDWC41wMGxgQdu9lr7LXgX66719w7KIxqAHkVvYxUCfZveWvAa6xJ0C/nPcd95ugGsMT7ETNfBBkb6z221UQ0F9iFw2gG8LC3ycFBxq70HnvRRDY3BYfRDKCut5ELC0/9Fuc9do2JbK4DDqMYQH6st5HihcdW+3g4WW0T2VxDHEYxgN1+njOXWWhsoY+pxCBfzs9cWRxGMYAVfgIo/Afel/2M7TORzR1CYvQCSPdj5PNCYy/4GQvya4CvOZ5rGMUAvvNj5MdCY3P8jAX5O5KfuZhcJEYvgF/9mDwSyacHkhTZpw5SGYfR/DWwhLeR8oWnNvp5OYGJbK4ZDqMZwBXeRtoUnsqr4D3W00Q2dy8OoxnAGG8jE4OM9fAee9tENrcAh9EMYIv3h/PBroXN8/4YIOj1Lu+50uwIRDUAc6mXkVbBprLKeY0Fv0rkPcezDaIcwMdeRoKveozymIrbYCKai9+CwugGYNqEN3J98KnsmpH9KOc11x+D0Q5gbdgXDiSuDTH2ZliPFUJ+nBd+LvkXDEY7APNqOCOzQo4NDDNVLN1ENJfAndCzEIAZYHcZ5Bj57SK71BFubgb+zkYAeb1CCbk/3KLGgVA/PQSGh/1yB64N9VeA0eg7KwEYMy7oTZ24iR7hBP/WUfo9r+CC7waU+RB7ZysAkx7kbbQNlniOzalSeCzFx374zCDrYSnsh5/FAEzupMon+qg6Nc/HWNZTJ2161pvn68sdfKLUSRfB2Ac4uwEYkzXnpj9kJt3yht9V7Yyp7RL+eEXt3e/5/mP+8XPJvT/Mw9zZDsAYk73s9dEDHhs793O7t40dTJ/9/MODx81bkW+iMgdnKgAgACAAIAAgACAAIAAgACAAIAAgACAAIAAgACAAIAAgACAAIAAgACAAIAAgACAAIAAgACAA+P8NIP0OKIIsOm0BTBYogowlAAIgAAIgAAIgAAIgAAIgAAIgAAIgAAIgAAIgAAIgAAIgAAIgAAIgAAIgAAIgAAIgAAIgAAIgAAIgAAIgAAIgAAIgAAIgAAIgAAIAAgACAAIAAgACAAIAAgACAAIAAgACAAIAAgACAAIAAgACAAIAAgACAAIAAgACAAIAAgACAAIAAgACAMcCKBFAi9MBtF3VCS9OB2DM19dhxukAjFl+NW6cDsCYpa2w43QAxiy+HD9OB2DMgksw5HQAxrx7MY6cDsAUvNkYSy4HYEz+nHp4cjkAY/JmnIcplwMwJndaDVy5HIAxOROqYcvlAIw5MjYZXy4HYMyh5ytizOUAjDn4TDmcuRyAMb/+qwzWXA7AmP1DSuHN5QCMyXi0BOZcDsCY3f0TcedyAMbsvC8eey4HYMy2XnH4czkAYzb3iMWgywEYs+GWGBy6HIAx67qwRqAsgNQCqwLMyo5oVBWAXDjXMgHWCHQFINL4jXy7BJZfhUpNAYg0et0ygSWsEagKQKThHMsEFrdAp6YARBrMtkzgw+YI1RSASP1ZeXYJzGeNQFUAIvVetUugYG4jpGoKQKTuTLsE8mezRqAqAJE6M3KtEsh7hTUCVQGInJ9ml0DuVNYIVAUgct7LdgnkTKiKXE0BiNSeftQqgSMvsEagKgCRWlPtEmCNQFkAIjWn2CVwcBhrBKoCEKkxKccqAdYIlAUgcu5EuwT2DWaNQFUAItUnZFslsPfR4ojWFIBItXF2Cex+MAHVmgIQqfbSEasEWCNQFoBI1RftEth2N2sEqgIQqfLCYasEWCNQFoBI5TF2CWzozhqBqgBEkkcfskpgLWsEugIQqTTSLoGVHbCuKgCRSs9nWSXwVVu8qwpA5JwRdgl81hrzqgIQqTj8oN0aQSruVQUgUuHZA1YJLGKNQFcAIuWfsUuANQLR9t7A8k//ZpXAOxcRgKoARMo99StrBC4HIJL0pFUC+bPqEoCqAESS/pVpt0ZQmwBUBSBSduh+mwSOTjmXAFQFIFLmcasEcsZXJQBVAYiU+cc+qzWCMckEoCoAkdJDfrFaIxhRgQBUBSBSarBVAgeGJRGAqgBESg3KsFojGFqGAFQFIFLysb12awQlCUBVACIlB/5stUYwoDgBqApApMSAPawRuByASIlHrBL4qU8xAlAVgEjxh3azRuByACLF+++yWiP4eywBqApAJPHB/9gk8H33AAGoCkAk8YGdVmsEnQMEoCoAkYS+P9kk8G0HAtAVgEjC/TtsEviyDQHoCkAkvs92mwSWtSYAXQGIxN9rlUB6SwLQFYBIsXu2Wa0RXEYAugIQKdZrq00CHzQjAF0BiBS7+0fX1wjcDkAk7q4tNmsEbzQkAF0BiMTdsdnlNQICEIntuclmjSCtNgHoCkAktsdGV9cICOBYArf/YJFA9rgqvv6rTbedKZoSwGlP4LYNVmsElXz8N1uYM0ULAjj9xNz6nYWCrMEEoCwAkZju6/07WEUA6gIQibl5HQG4HIBI4Ka1BOByACKBrmsIwOUARAJdVhOAywGIBDqvIgCXAxAJ3LCSAFwOQEQ6rSAApwMQ6fANATgdgEj77wnA6QDKvEcADgdQNszDxghAfQBlh2byQ6C7ASQ9kcmvge4GUM7zkcMEoDiAcj6eO08AagMoP8zPmycIQGkAft89QwAqA/D/9ikCUBjAOSP8v3yMANQFYPUGyp97+/ggoe2ZoiwBnH79oyzeQbtvkJInyhLAMazeQq3omdIEICKW76E/+Ew5Pb/yEoCIVBlrof/wyIqaPvIiAKn64hH/+rNfqqzrI2/nA6g2Ltu/foWvF3M8gOrjLfTnzVD4gkGnAzh3Yo5//flz6okQgKIAakyy0F8w7wIRAlAUQM0pFvrNB01FCEBRALWmHrXQr/Uhkc4GUHu6jf6lrUQIQFEA572ca6H/86tFCEBRAOen2ehf0U6EABQFUGeGjX797wtxLIC6M/Ms9G+4JUaEAPQEUP/fNvq39HThnWEOBdBgVr6F/h338OJIVQE0nGOjf1c/Xh2rKoBGr9no5+XRygJo/IaN/v1DSokQgJ4ALphbYKH/tyfLihCAngAuestGf9Zz5UUIQE8AF8+z0e/vAeAEUGQCaPK2jf6cCVVFCEBPAE3n22xa5U6vKUIAegJo/q6N/vxXzxchAD0BXPK+jX6F74JzO4C/fGC1Zzv/IhEC0BPAZQus9C+8RIQA9ATQYqGV/k9SRAhATwApH1npX3algKIA/rrISv9XbbCvKYCWH1vpX9UR95oCaPWJlf713QKoVxTAFelW+jfdFoN4RQFcucRK/9a74tCuKIDWS63077yvGNIVBXD1p1b69zyUiHJFAVyzzEr/L4+VQLiiANost9Kf+XhpdCsKoO3nVvoPDktCtqIArvvCSv+h5yuiWlEA7b6y0p/9YmVEKwqg/ddW+o9Oro5mRQF0/MZKf94rtZGsJ4BAp2+t9OfProdiPQEEblxppb/grcYI1hNAoPMqK/3m/abo1RNAoOtqO/0fXYpcPQEEuq21078kFbV6Aoi5eZ2d/uVXIVZPADHd19vpX3E9WvUEEHPLd3b619yIVD0BxN72vZ3+Dd257KcngNjbf7DTv6VHLEbVBBDbY6Od/u29ueynJ4C4npvs9O96IB6bagKIu3Oznf69jxTHpZoA4u7aYqd//+CSmNQTQMMf7fT/9kQZPGoKoK2V/qzh5bHobgBHRlfCobsB5IyvikF3A8idVgN/7gaQN/N87LkbQMHrDXDncADvXIg5hwNY0BxvDgfw8eVYcziAT/+GM4cD+PJajDkcwMoO+HI4gPVdue3lcAAbb+XRbg4HsPVOLvs5HMBPfXi0m8MB7OmfgCZ3A8gYyKPdHA4g85882s3hAA48nYQgdwM4NKICetwNIHtsMnLcDeDopGqocTeAvLRaiHE4gNp10eJ0AEAAQABAAEAAQABAAEAAQABAAEAAQABAAEAAQABAAEAAQABAAEAAQABAAEAAQABAAEAAQABAAEAAQABAAEAAQABAAEAAQABAAEAABEAABEAABEAABEAABEAABEAABEAABEAABEAABEAABEAABEAABEAABEAABEAABEAABEAABEAABEAABEAABEAABPA7s2tBESTNVwCZBhwmU9ZzCC6zXhZzCC6zWGZyCC4zU4ZzCC4zXPpxCC7TT7pwCC7TRRpxCC7TSGQzp+Aum0VkNMfgLqNFJJVjcJdUEYnN4BxcJSNWRCSNg3CVNBER6cRBuEonERFJ2MZJuMnWhP9dHOjBUbjJrcdujsSs4SxcZEXg97tD7TgMF2n95+2xpZyGeyw47vpgC47DOfIvOP4C6XQOxDVGnXCDOOEzTsQtPoo98Q558nbOxCU2JJ28RdAki1Nxh8x6hfdIuhRwLq6Qd02wTaIhHIwr9A2+S9brKEfjAodvDrVNmLqX09HPzuah90lr8VcB9XxZJdxGcan5nJBuZiWG3ykP9NnNIellRw/vxwqUHHqAg9LJ/oGJvp4sUWk8vw4oJHtkOd8PF6kzjavCytg9oYbV82ViUkdt4tS08P1zLQIRPGSo0eCFa/hOULQpyFi94LH6p/Koqfial3fp+xAUQfp2TakZz8PSAAAAAAAAAAAAAAAAAAAAAAAAAAAAAAAAAAAAAAAAAAAAAACKJv8FJ/vPBLslgZQAAAAASUVORK5CYII=;" parent="1" vertex="1">
                    <mxGeometry x="1650" y="-28" width="100" height="100" as="geometry"/>
                </mxCell>
                <mxCell id="8" value="" style="shape=image;verticalLabelPosition=bottom;labelBackgroundColor=default;verticalAlign=top;aspect=fixed;imageAspect=0;image=data:image/png,iVBORw0KGgoAAAANSUhEUgAAAgAAAAIAAQMAAADOtka5AAAABGdBTUEAALGPC/xhBQAAAAFzUkdCAK7OHOkAAAAJcEhZcwAACxMAAAsTAQCanBgAAAAGUExURUdwTAAAAJ8qhFEAAAABdFJOUwBA5thmAAAD50lEQVR42u3dQZLbIBBAUSgWLDkCR+Fo6Gg6io6gpRYqdZJypjKxx4LmO6O4qtlavJppGpmWbXDOmrW3bWlj/b0IA4rITPpHEVkI8LO/rKB//gVsKII/244iiIAoELj1lwNFEABBPhqK4DgQBQICgQyBIBCon4EJRXAMEAhkCASBQIVAEggIBDIEgkCgQiAJBAQCGQJBIFAhkIQBXiCQIRAEAhUCSRjgBQIFAkEgUCGQhAFeIFAgEAUCFQJJGOAFAgUCUSAgEIgUKBQQCHgKBApECqTLgXw5UAzgQDXAAAMMMMAAAwwwwIA3BNbIgONW1I0Dy62sHAb234XtMDBDYHMQmD5eHwRWx4DDQWCBwO4gMENgcxCYILA6BhwOAgsEdgeBGQKbg8AEgdUx4HAQWCCwOwjMENgcBCYIrI4Bh4PAAoHdQWCGwOYgMEFgdQw4HAQWCOwOAjMENgeBCQKrY8DhILBQwEFgo8BKgeVyYDbg9AIDDDDAAAMMMMAAAwwwwAADDDDAAAMMMMAAAwwwwAADDDDAAAMMMMAAAwww4D8BxAAM+PcHwuVApEC6HMgUKBQQCHgKRApkCggEEgSiEKAoflk3PZmFAPACgQKBIBAoEPACgUSBAgEvEIgUSBQoFBAIeAoECiQKZAoUClQKCAT85UCgQLwcSBTI3w08XFDeH6jfDPjXA8rNA8LlQHw54JVAokCmQKFApYBAIFAgUuCxpAk6QCCQKFAhUAQB8csLuoFnF3QCz2uiTqBA4KQm+gpo/QHNVG5EYACIFCgUEAgEJXA4p6mJOoBMgUoBUQJ7I43UQGzvnHEOJC2wtQZBCzSKqtIEqhZYW6P4YiC3AK8GlsZcbFYsSyuPWsCsA2ILSGpg0gHN5w9ZDTgd4FtAsyZq3ZAw0CxpevapOQWKejYrgeYCIqtnc+NB1KIF4vlUaC+mG0eZtAFPAXeeyR1APU3EDqAo31obE37TA+k0DTqWsuF0y6YO4PzTiZ7FdFWt8RoP5/cRIJ3tOtUDhLNNm7oKirNNl7qAcrLQ7gLSybZRXSWNP9l1SVkTzc1y52sgPt81qQ/4SMZlGIhPX+kEbjeFGQC/hMUR4PyjaGlscvYvAfc/Avu7Ae2a6PuB9ZuB0qpI/jmQXw/MFJh0QHo9oOv/RVVGAe0JkwFOxkdAe1Cop4CDc+kRWLRAZZms/IpGD6Dtfz+b9CeVJpZHD7msP3A2wDS4T0V1Gtxn0qwHKhvFu0QYOW82sUG4G8d1APAwhn8Pw0j/z1EcOzU4sRD8lcxDIfgchLH+f24Jo2c/x+Hb2d3/gI9+noeB24xEZ4hX2N+atQvbD328m+cGjQgoAAAAAElFTkSuQmCC;" parent="1" vertex="1">
                    <mxGeometry x="-350" y="-28" width="100" height="100" as="geometry"/>
                </mxCell>
                <mxCell id="9" value="" style="shape=image;verticalLabelPosition=bottom;labelBackgroundColor=default;verticalAlign=top;aspect=fixed;imageAspect=0;image=data:image/png,iVBORw0KGgoAAAANSUhEUgAAAgAAAAIACAYAAAD0eNT6AAAABHNCSVQICAgIfAhkiAAAAAlwSFlzAAAOxAAADsQBlSsOGwAAABl0RVh0U29mdHdhcmUAd3d3Lmlua3NjYXBlLm9yZ5vuPBoAABVjSURBVHic7d378+V3Xdjx535zAYISEkQCyGUEHS4KBTtaLgUrgtVWAmKVafsHdDodx05pq5WhtLWgFgdocVBnehnHGQP0wmVUEBwHKhapkMrNUIxcitycEi7JBpJN0h9O0mHIZrO7393zPuf7ejxm3hM2Yb+f1/ec3c/7+f2c27FOzwXVU6orqydX31pdVl10mr+f03NbdV31ierq6o3V71THVw4FcBYuqZ5VPbt6QvXQNvvGsZVDHUE3t9k3/qx6Z/WG6g+qWw77he9V/VT1uTabk7X9dbx6dXXF3dxXALvggdUvtzl3rT5/Tl2frf5Jmz38rPxY9ckd+Easzbq+emF1cKo7DWCRC6oXtTlXrT5fWpv1iepHT3Wnfb1j1YurW3dgeOvO67erS+/qzgNY4BvbXHpefX607rxurX6u0/jh8aB6zQ4MbJ16faC6/C7uQ4Btul+bc9Lq86J16nVVdxMBL92BIa3TW2+vLj753QiwFRdVv9v686F1eutnT343bh7zXz2cdWbr5Se9JwG245WtPw9ap79urZ53x513x8sx7lV9uHpI7JNbqsdXH1w9CDDOd7Z5ufIFqwfhjPx59e3V8TseD/jJbP776ILqJauHAEZ6aTb/ffTg6h/U5grABdWnq/uvnIhDeXR1zeohgDEekyuP++yz1YMPqqdm8993z1k9ADDKc1cPwKE8oHrSQZu392W/uQ+BbXLO2X9XHqveVX3P6kk4lBPVvaubVg8CHHkXt3mbX4//77c/OGjzwT7stwurh60eAhjh4dn8j4JHHORtZY+K+64eABjBueZouO9B3k0OAKa5h0+WOzquWz0AMMIXVg/AuXGszdsDst9OVJdUN68eBDjyLq5uaPPcI/aYKwBHw7uz+QPbcVP1ntVDcHgC4Gh4w+oBgFGcc44AAXA0+MsIbNPrVw/A4QmA/ff6Np/kCLAtf1K9afUQHI4nAe63W6rHVR9aPQgwzqOq9+fJgHvLFYD99ops/sAa11SvWj0EZ88VgP31tuoH27wEEGCFC6s3V89YPQhnTgDspw9UT68+v3oQYLzLq7dX37F6EM6MhwD2z29XT83mD+yGz1dPyquR9o4A2B/XV/+s+pvVFxfPAvC1rq9+pHrh7f+bPXGbtdPrhjZPtHnAXd2BADvkiuqX2py7Vp8/rVMszwHYLbe2+VCfj1dXV2+s3lrduHIogLNwr+qZ1bOrJ1YPrS7LleedsTIAji06LgDskiX7sBIDgIEEAAAMJAAAYCABAAADCQAAGEgAAMBAAgAABhIAADCQAACAgQQAAAwkAABgIAEAAAMJAAAYSAAAwEACAAAGEgAAMJAAAICBBAAADCQAAGAgAQAAAwkAABhIAADAQAIAAAYSAAAwkAAAgIEEAAAMJAAAYCABAAADCQAAGEgAAMBAAgAABhIAADCQAACAgQQAAAwkAABgIAEAAAMJAAAYSAAAwEACAAAGEgAAMJAAAICBBAAADCQAAGAgAQAAAwkAABhIAADAQAIAAAYSAAAwkAAAgIEEAAAMJAAAYCABAAADCQAAGEgAAMBAAgAABhIAADCQAACAgS5cPQBVPbr6W9VTqgdVl6wdB+CcO159qvr96nXVNWvH4Vh128JjT3d59Yrq7+RqDDDHrdWvVz9ZXbd4ll2wZB8WAOt8a/WW6pGrBwFY5CPVD1QfXT3IYgJgkPtU72pz6R9gsg9WT6q+vHqQhZbswy47r/GibP4AVY+tfmb1EBO5ArB9l7V5Isw9Vw8CsCNubPME6C+sHmQRVwCG+KFs/gBf617VD64eYhoBsH1PXD0AwA56wuoBphEA2/fNqwcA2EEPXD3ANAJg+y5aPQDADnJu3DIBAAADHVQnFhx3xTEBYBct2YcPqusXHPhLC44JALtoyT58UH18wYE/tuCYALCLluzDB9V7Fxz46gXHBIBdtGQfPqjeuODAb1hwTADYRUv24YM2n0h3fIsHPV797haPBwC7bMk+fNDmPZh/bYsH/o9t9xsFgF22ZB++430A/nnb+SjG66uf3cJxAGCfbH0fviMAPlf9whYO/JLqM1s4DgDsk63vwwdf9y/fdB4P+ua2880BwD7a6j78tQFwa/V3qw+eh4N+oPqx6pbz8LUB4CjY6j789Z8F8KXqaZ3bZ+m/o/q+tvPYBgDss63twyf7MKDPV3+9ekWH+4n9RPWL1TOqvzjE1wGASbayD9/VpwGeqP5h9R3V66rbzvCgb6u+q3pBPvgHAM7Ued+HL7ybL3BNm8cMHlVdWT2n+ssn+X0nqv/Z5h3+Xl99+AwHBQDu7Lztw8fOYpiLqodX97n9119s80EGN5/F15roqurHVw8BsGNeUz1/9RB74pzsw3d3BeBkbq4+cha/DwA4vHOyD9/VcwAAgCNMAADAQAIAAAYSAAAwkAAAgIEEAAAMJAAAYCABAAADCQAAGEgAAMBAAgAABhIAADCQAACAgQQAAAwkAABgIAEAAAMJAAAYSAAAwEACAAAGEgAAMJAAAICBBAAADCQAAGAgAQAAAwkAABhIAADAQAIAAAYSAAAwkAAAgIEEAAAMJAAAYCABAAADCQAAGEgAAMBAF64egPGurd5SfbL6v4tnOR/uUV1RPbH6a7f/mrv21er3qvdUn73910fN/aqHVM+qHrF4FmCLrqpus/rD6umHvC33zWXVS6sbW3/779q6sXpJdd+zvnX30/dW72797b8L66rD3ZSw+wRA/dtmX336nurTrb8fdmV9qvruQ92i++3C6lWtvx9WLwHAkTc9AP7D4W/CI+Hx1fWtvz9Wry9XjzvkbXlU/Err74+VSwBsmScBsk0fqf7e6iF2xB9X/3T1EDvgBdX7Vg+xI36izXNiYCsEANv04uqm1UPskF+tPrp6iIWurf796iF2yFfb/B2BrRAAbMvx6vWrh9gxN1evXT3EQq+pTqweYsf81zZ/V+C8EwBsyx/lxHYy71g9wEK/v3qAHXS8eu/qIZhBALAtf756gB01+Xb51OoBdtQnVw/ADAKAbblh9QA7avLtMvl7P5XrVw/ADAIAAAYSAAAwkAAAgIEEAAAMJAAAYCABAAADCQAAGEgAAMBAAgAABhIAADCQAACAgQQAAAwkAABgIAEAAAMJAAAYSAAAwEACAAAGEgAAMJAAAICBBAAADCQAAGAgAQAAAwkAABhIAADAQAIAAAYSAAAwkAAAgIEEAAAMJAAAYCABAAADCQAAGEgAbN+J1QMscvPqAWBPOEewFQJg+z6zeoBFPr16ANgTzhFshQDYvj9ePcAiU79vOFNT/65M/b6XEQDb95vVV1cPsWVfrt62egjYE2+trl89xJZ9tfqt1UNMIwC27/PVq1cPsWUvq46vHgL2xA3Vy1cPsWX/rrpu9RCwDfetPlzdNmBdXV1ybm62I+mRrb+PVq1HnoPb76i6d5tL4qvvo22sa6pLz83NxplwBWCNL1Q/XH1s8Rzn24erK/PTP5ypG6pnV/979SDn2UfbnAu/uHoQ2Lb7V6+pbm19hZ/LdUv1n1L1p8MVAE7lsurX2vydWn1/nct1a/Ub1Tedu5uKM3Vs9QBU9fjqx6unVFdUF64d56zc3OblS++orqo+tHacvfHI6iOrh1jk26o/XT3Ennhs9fzqr1YPbD/PESfanCPe2eYc8b614wCs5QoAsITnAADAQAIAAAYSAAAwkAAAgIEEAAAMJAAAYCABAAADCQAAGEgAAMBAAgAABhIAADCQAACAgQQAAAwkAABgIAEAAAMJAAAYSAAAwEACAAAGEgAAMJAAAICBBAAADCQAAGAgAQAAAwkAABhIAADAQAIAAAYSAAAwkAAAgIEEAAAMJAAAYCABAAADCQAAGEgAAMBAAgAABhIAADCQAACAgQQAAAwkAABgIAEAAAMJAAAYSAAAwEACAAAGEgAAMJAAAICBBAAADCQAAGAgAQAAAwkAABhIAADAQAIAAAYSAAAwkAAAgIEEAAAMJAAAYCABAAADCQAAGEgAAMBAAgAABhIAADCQAACAgQQAAAwkAABgIAEAAAMJAAAYSAAAwEACAAAGEgAAMJAAAICBBAAADCQAAGAgAQAAAwkAABhIAADAQAIAAAYSAAAwkAAAgIEEAAAMJAAAYCABAAADCQAAGEgAAMBAAgAABhIAADCQAACAgQQAAAwkAABgIAEAAAMJAAAYSAAAwEACAAAGEgAAMJAAAICBBAAADCQAAGAgAQAAAwkAABhIAADAQAIAAAYSAAAwkAAAgIEEAAAMJAAAYCABAAADCQAAGEgAAMBAAgAABhIAADCQAACAgQQAAAwkAABgIAEAAAMJAAAYSAAAwEACAAAGEgAAMJAAAICBBAAADCQAAGAgAQAAAwkAABhIAADAQAIAAAYSAAAwkAAAgIEEAAAMJAAAYCABAAADCQAAGEgAAMBAAgAABhIAADCQAACAgQQAAAwkAABgIAEAAAMJAAAYSAAAwEACAAAGEgAAMJAAAICBBAAADCQAAGAgAQAAAwkAABhIAADAQAIAAAYSAAAwkAAAgIEEAAAMJAAAYCABAAADCQAAGEgAAMBAAgAABhIAADCQAACAgQQAAAwkAABgIAEAAAMJAAAYSAAAwEACAAAGEgAAMJAAAICBBAAADCQAAGAgAQAAAwkAABhIAADAQAIAAAYSAAAwkAAAgIEEAAAMJAAAYCABAAADCQAAGEgAAMBAAgAABhIAADCQAACAgQQAAAwkAABgIAEAAAMJAAAYSAAAwEACAAAGEgAAMJAAAICBBAAADCQAAGAgAQAAAwkAABhIAMBa9149wEKTv3dYTgDAWt+yeoCFHrR6AJhMAMBaT189wEJPWz0AAKxwUfVn1W1D17XVhYe+FYGzcsFZ/J6Lq2+rHtbmEt6l1ZeqW87hXDDB36/+9uohFrqs+kz1R6sHgT2z1X34MdVPV39YnejOJX+ielf1U9Wjz8cAcMT8per61v8Uvnodr77rkLclTLD1ffjR1WtPcqC7W2+tHn8uBoAj6MltfvJdvfnuyvp09VcOdYvC0bX1ffii6pWdvDJOd52oXp7H+OAOl1e/UH2l9Zvurq2vVD9/+20EbGEfPnaSf3d5m9p4xjn6Jv579bzqL87R14Nz4Z7Vd1cP6fy+Hv0ebR6je2L1vW0eu+Ou3VT9XvXeNlcGvnoej3VD9Ynq3ef5OHCmluzDl1Yf6NzX/Qeq+5yjbwQO41uqX62+3Pqfeq3dWF+qfqV6cLDekn34oHrTeTjoHevNnd2rDuBcuTIbv3XX60vVs4N1lu3DLzqPB71jvfBwtw2ctee2eYnM6k3G2u11S5tQhBWW7MMPbDsvSfpydcVhbyE4Qw/LT/7W6a8vtXluCGzT1vfhOy4FvKx60nn+5mrzBKh7V7+5hWPBHV7Z5gl/cDru0eZx2DeuHoRRtr4PH6suafPMwEu2cODavPHH/W//J5xv2/7zzdFwY/VNOU+xHUv24YPqB7Z40G4/1vdv8XjM9tRs/py5e1VPWT0EYyzZhw+qH97iQe/gmbZsy0NXD8De8meHbVmyDx+05n24n7jgmMzk/Sc4W5euHoAxluzDB62p3IctOCYznezdLuF0+LPDtizZhw+qb1hwYD+VAcDGkn34oDUf1uMDggBgY8k+fLDgoADAYgIAAAYSAAAwkAAAgIEEAAAMJAAAYCABAAADCQAAGEgAAMBAAgAABhIAADCQAACAgQQAAAwkAABgIAEAAAMJAAAYSAAAwEACAAAGEgAAMJAAAICBBAAADCQAAGAgAQAAAwkAABhIAADAQAIAAAYSAAAwkAAAgIEEAAAMJAAAYCABAAADCQAAGEgAAMBAAgAABhIAADCQAACAgQQAAAwkAABgIAEAAAMJAAAYSAAAwEACgKPuptUDsLf82eFIEwAcdZ9dPQB769OrB4DzSQBw1F29egD2lj87HGkCgKPuI9X7Vg/B3vlf1bWrh4DzSQAwwb9aPQB751+sHgDONwHABP+l+s+rh2BvvKZ6/eoh4Hw7Vt228NiwLZe0Oak/c/Ug7LS3VD9SHV89CKMs2YddAWCK49UPVS+ublg7Cjvo+upF1d/I5s8QrgAw0QOqH62+v3pIddnacVjkuur/VG+rXld9bu04DLZkHxYAALCWhwAAgO0QAAAwkAAAgIEEAAAMJAAAYCABAAADCQAAGEgAAMBAAgAABhIAADCQAACAgQQAAAwkAABgIAEAAAMJAAAYSAAAwEACAAAGOlbdtnoI/r/bquuqT1RXV2+sfqc6vnIogLNwSfWs6tnVE6qHVpe12XfYEbdZO72OV6+urrirOxBghzyw+uU2567V50/r1Gv5ANbpreurF+ZhG2A3XVC9qM25avX50jqN5SGA/fPm6vnVF1cPAnC7b6x+vc3lfvaEANhPH6yeVn1+9SDAePer3l49dvUgnBmXk/fTY6v/Vl28ehBgtIuq12bz30sCYH89rfr51UMAo72s+r7VQ3B2PASw326pHt/mIQGAbfrONi9XvmD1IJwdVwD22wXVS1YPAYz00mz+e80VgKPh0dU1q4cAxnhMrjzuPVcAjobnrB4AGOW5qwfg8ATA0XDl6gGAUZxzjgAPARwNJ6p7VzetHgQ48i5u8za/Hv/fc64AHA0XVg9bPQQwwsOz+R8JAuDouO/qAYARnGuOiINcNgaAab56kA+VOSquWz0AMMIXVg/AOfGFg+ra1VNwaCeqj68eAhjhY23OOey3Pz2o3rl6Cg7t3dXNq4cARripes/qITi0dx5Ub1g9BYfmPgS2yTln/73hWJuXc3yq+ubFw3D2HlV9ePUQwBiPrj60egjO2merBx20+US5X1w8DGfv9dn8ge36k+pNq4fgrP2b6tZjt//inm02kYeum4ezcEv1uJQ4sH2Pqt7f5o3I2B+frL69uvGONwL6SvWP8rbA++YV2fyBNa6pXrV6CM7IbdVPVDee7D/+69v/D9bur7emvIG1Lqze1vrzoXV661+e/G7cOKiu2oEhrVOv91eX38V9CLBNl7c5J60+L1qnXr/Rabz9/7HqxdWtOzCwdef1W9Wld3XnASzwDW2ekLz6/Gjded1a/Vxn+Nk/z6s+sQPDW5v15eqn8wFOwG46qH6mzblq9fnS2qyPV8891Z12Kves/nH1mR34RqauG9o80eYBd3NfAeyCK6pfanPuWn3+nLo+U72gzR5+l46d6j9+jYPqydWVt//zEdVl1cWn+fs5Pbe2+VCfj1dXV29s82S/kz5jE2CH3at6ZvXs6oltXmZ+Wa5inms3tdk3rm3z1v5vqP5Hm/3klP4ff+RYWAo8LpUAAAAASUVORK5CYII=;" parent="1" vertex="1">
                    <mxGeometry x="650" y="-28" width="100" height="100" as="geometry"/>
                </mxCell>
                <mxCell id="10" value="" style="shape=image;verticalLabelPosition=bottom;labelBackgroundColor=default;verticalAlign=top;aspect=fixed;imageAspect=0;image=data:image/png,iVBORw0KGgoAAAANSUhEUgAAAgAAAAIACAYAAAD0eNT6AAAAGXRFWHRTb2Z0d2FyZQBBZG9iZSBJbWFnZVJlYWR5ccllPAAAE7RJREFUeNrs3UFWG1e6B/CSAweGeAWRVxBYQcQKjGc9s1iB2yvw87BHTlaAvALw8I0gKzCe9cz0CswQDt3tdz9z8SOAgxCS6lbd3++caiVxJ4hbpfr+9d1bpaYBAAAAAAAAAAAAAAAAAAAAAAAAAAAAAAAAAAAAAAAAAG4aGILFWl1bH6WX2H5J2zBtm0YFgDscp+0kbZ/SdnRxfnYkAHSr4G+kl520Pc+vADCrg7R9iNcUCE4FgHKv9F+mbWw0AFiASdrez6szIADMp/C/aS7b/ACwaBEA3j42CAgAsxf+aPW/c8UPQIsdgdezTg0IALMV/5jb30vbhtEAoEVR/HdTCDgQABZf/Pdc9QNQWjcghYBdAWAxhT+u9g8bt/EBUKa4jXB72imBJ8ZrquI/VPwBKFzUqMNcs3QA5lT8Pzbm+wHohugAbF2cn53oAMxe/KPo7yv+AHTIt9qVa5gAMCNtfwC6aDPXMAFghqv/PcUfgC6HgFzL7mQNwN3FP+7z3zcSAPTAi7ueEyAA3C7+MWfyuTHvD0A/xKLAZzdvDzQFcNs7xR+AHrl6dL0OwF9c/Y+aexZNAEBHbV//AiEdgD97YwgAqKHG6QC4+gegHvGAoGMdgD97aQgA6LlXOgB/vvqPBRJfjAQAFXgadwToAFzaMQQA1FTzBIBLzw0BADXVPFMAzbcpgK9GAYBaXJyfDarvAOTV/wBQVe0zBdA0AgAA1dU+AaBpfjEEANRW+wSAphkaAgBqq33VLwK0ABCAGukAAIAAAAAIAABAL60Ygioc5+1faTu6/gfXvxsaoCZ3PAcm/v7ntG3mrdcsAuznIsDTtB2k7UMU/PjSBx91gAfVho0cCOKxufHs/A0BQAAoWRT996ngH/j4Asy1VkQIeNn06MvjBIB+BIBJ2t6mwn/iYwqw0JoxTC9v0jYWAASANh2l7XUq/Mc+lgBLrR2xRuBd0+HHybsLoJtOc+HfVvwBli/OvXEOjnNxPifrAOgALFwU/Bfa/QDF1JFhetlvOnbngA5At0zStq34AxTVDYhz8nY+R+sA6ADM3W/pIHvtowZQdE3ZazqyQFAHoBt2FX+ATnQDduOcLQAwD5N0QE0MA0BnQkCcs4s/bwsA5Rf/XcMA0MlOQNEhQAAoV6z21/YH6K7X+VxeJIsAy1wEGPeUblntD9D5GjNMLx+bAr9LQAegTB7rC9AD+Vz+VgdAB2AaR/npUgD0p9YcNoU9NlgHoDzm/QGc2wWAykw82x+gf/K5fVLSezIFUNYUwDNz/wC9rTfD9PJZB4CbDhR/gF53AeIcfyAAcNN7QwDgXL8spgDKmAI4Tcnwqc8FQBV150tTwHMBdADKcGAIAJzzBYD6fDAEAM75AkB9jgwBgHO+AFCX44vzs1PDAFCHfM5v/ZkvAkABAcAQADj3CwD1+ZchAHDuFwDqc2QIAJz7BQAAQAAAAASAPnIHAABLt/BHAa+urY/SS2y/pG2Ytk3DXrRYmXqStk9pO7o4PzsyJAALqY+tPop+sIBfKJ5vvJO25/mV7ovHVsaTqw48swBAALjrSv9l2sZ2a69N0vZ7CgKeXwBQcwDIhf9Nc9nmpx5HaXtrigCgsgCQW/3vXPHrCKTttakBgAoCQHrTMbe/1xTwfcYUIYr/bgoBvtYYoCMB4MkMbzgK/77izzVxLOznYwOADpi6A5Bb/oeN2/j4a7E4cNuUAEAPOgCKPw8Qx8hhPmYA6GoHIJ3Ih+nlY6Plz8NEB+CZTgBABzsA+SrOfD+z2NAJACjXfVMA2v48xmY+hgDoSgDIK7oVfx4dAtwdAFCewQ+Kf9znv294mKMXnhMA8KdaW9aDgPKc7efGvD/zZVEgQEEB4K4pgHeKPwtw9ehoAAowuJFGRo1FWyzWti8QAiivA/DGLmHBHGMAJXUAUhKJFf8fDQlLsHVxfnZsGAAdgDI6AK/sDpbEsQZQQgcgr/z/YjhYoqfuCAB0ANrvAOzYFSyZYw6ggADw3FCwZI45gBZdTQF8NRQs28X52cAoALVqfQog3/sPbRz8jj2AtgJA2pyEaYtjD6DFAPCLYaAljj2AFgPA0DDQEsceQEsGFgDSJgsBgVqV+G2AAEDPCQAAIAAAADVYafsNmANulzUgADoAAIAAAAAIAACAAAAACAAAgAAAAAgAAIAAAAAIAACAAAAACAAAgAAAAAgAAIAAAAAIAACAAAAACAAAIAAAAAIAACAAAAACAAAgAAAAAgAAIAAAAAIAACAAAAACAAAgAAAAAgAAIAAAAAIAADCllbbfwOra+le7AQB0AAAAAQAAEAAAAAEAABAAAAABAAAQAAAAAQAABAAAQAAAAAQAAEAAAAAEAABAAAAABAAAQAAAAAQAAEAAAAAEAABAAAAABAAAQAAAAAQAAEAAAAAEAAAQAAAAAQAAEAAAAAEAABAAAAABAAAo3krbb+Di/GxgN7RndW39q1EA0AEAAAQAAEAAAAAEAABAAAAABAAAQAAAAAQAAEAAAAAEAABAAAAABAAAQAAAAAQAAEAAAAAEAABAAAAAAQAAEAAAAAEAABAAAAABAAAQAAAAAQAAEAAAAAEAABAAAAABAAAQAAAAAQAAEAAAgCmstP0GVtfWv9oNAKADAAAIAACAAAAACAAAgAAAAAgAAIAAAAAIAAAgAAAAAgAAIAAAAAIAACAAAAACAAAgAAAAAgAAIAAAAAIAACAAAAACAAAgAAAAAgAAIAAAAAIAACAAAIAAAAAIAACAAAAACAAAgAAAAAgAAIAAAAAIAACAAAAACAAAgAAAAAgAAIAAAAAIAACAAAAACAAAgAAAAAIAACAAAAACAAAgAAAAAgAAIAAAAAIAACAAAAACAAAgAAAAAgAAIAAAAAIAACAAAAACAAAgAAAAAgAACACGAAAEAABAAAAABAAAQAAAAAQAAEAAAAAEAABAAAAABAAAQAAAAAQAAEAAAAAEAABAAAAABAAAQAAAAAQAABAAAAABAAAQAAAAAQAAEAAAAAEAABAAAAABAAAQAAAAAQAAEAAAAAEAABAAAAABAAAQAAAAAQAAEAAAQAAAAAQAAGAxVtfWRwIAACAAAAACAAAgAABAL4wEAACoz88CAADUZ1MAAICKrK6tbwgAAFCfUQlvQgAAgOV6LgAAQH12BAAAqMjq2noU/w0BAADq8qqUNyIAAMByrv6HTSELAAUAAFieNyW9mUFKJF/tE9pycX42MApABVf/cd//x5Lekw4AACzeu9LekAAAAIu9+v97U9Dc/xVTALTKFADQ8+I/bC5b/xulvTcdAABYTPGPor9fYvEXAABgcWLef7PUNycAAMD8r/730su45PcoAADAfIv/uPTiH1bsKgCo58pfAACA+RX+WOj3rivFXwAAgMcX/2Fzudp/s0vv2xoAAJi9+MdDfj52rfjrAADAbIU/Cn60/Edd/R0EAACYvvAPm8tv9Rt3/XcRAADg/sK/k15epm2nL7+TAAAAtwt+rOofpe15LvobffsdBQAAai3yoxv/KP7+5+ZyQd9m339/AYC2P4C+jRKgBW4DBAABAAAQAAAAAQAAEAAAAAEAABAAAAABAAAQAAAAAQAAEAAAAAEAABAAAAABAAAQAAAAAQAAEAAAAAEAAAQAAEAAAAB66lgAAID6nAgAAFCfTwIAANTnaLC6tv7VOABAPS7OzwY6AABQl4P4HwEAAOryIf7HFAAA1OXpxfnZqQ4AANRjEsU//kIAAIB6vL/6CwEAAOpwlK7+jwQAAKjL2+t/s9KxN38cCSZtf6Tt9MafbaTt17SN0rZpPwPAd5PrV/+hC3cBRKGfpO339OZPpvkX0u80TC+v0jbOwQAAahV19NnV4r+uBIB4WMHuzTc9rfS7RfHfS9uO/Q9ApV6kOnpw8x+WugbgNL/hF7MW/xD/bvw3IkQ0t6cMAKDvJncV/1I7AFGot9MbPp7nfzT9nrEu4LAxJQBAHY5TLd360R+W1gFYSPHP3YD4b27rBABQQ/HPNa/pSgB4vYjifyMEvHZcANBjV9Pop10JAAfpzU4W/UPyzzhwfADQ0yv/rWnumitlDcCdtygsSr474HNjPQAA/Sr+29PW0lI6AJNlFf/cBbh6tgAA9EHU0a2H1NJSOgDPpn3Izxy7AMPcBQCAroqCv/ujW/1K7wAcL7v45y5A/Mxjxw4AXb3qzxfQM61rKyEAHFX6swFg1toVc/27j5k+LyEA/FHpzwaAh17xR+HfvvnFPrMo4dsATyv92QBwn2jvf2gub5Wfa81aMbYAUIRYl3aStk9pO5rHVb4AQLHSAT4wCgDL98QQAIAA0IaNSn82AFQdAH6t9GcDQNUBYFTpzwaAqgPAZn4s71Lln7npEABAAGjPq0p+JgAUwdcB0yq3AQLU3QGIQry3xJ+3p/gDIACUYSddmY+XcPUfP2PHrgegZqVMAVyJKYD4koOFfE1v+l1j0d+hq/9ymAIA0AFocmE+zIVa8QeASgLA9RAwnmPxHyv+APD/SpsCuCm+BnF31rsD8mr/WPBnzr9QpgAABIAfieI/SdvvqVicTFn4h83lff5jV/0CAADdDADXxeLAo7T9kYPBdVHo49n+o8YT/gQAAHoVABAAmEFeBLtzLSRz29XFxcGi7kQCAQAEgGUV/ij6bxpdsYeKAPA2HZ8HhgIBAASALhX+YXO5ANbV/uO7ArvTrj+CLnliCKCXV/0fFf+5iDH8mMcUBACg2OI/Ti/7jbtf5inGcn8ZjyoHAQCY9cp/z0gszJ5OAH1iDQCtsgZgbsV/2Fy2/V35L1bcfrxlTQA6AEAxV6eK/1Is+6vLQQAAfnj1H23pkZFYmpGpAAQAoARvDIExBwEA6rr6jwf8eMjP8m0u4mvLQQAApqUVbexBAIAK/WoIjD3Mwm2AtMptgI/j8+v4BR0AAEAAAAAEAABAAAAAAQAAEAAAAAEAABAAAAABAAAQAAAAAQAAEAAAAAEAABAAAAABAAAQAAAAAQAAEAAAAAEAKrC6tj4yCvYBCAAAgAAAAAgA0EebhsA+AAEA6vOzIbAPQACA+owMgX0Asxqsrq1/NQy05eL8bGAUHi59bjfSyxcjUYSn6Tg+NQzoAACuPO0LEACAhXhuCOwLeAxTALTKFMBs0uc22v8bRqIIp+k4fmoY0AEAFl38x4p/UTbyPgEBAFiol4bAPoHHMgVAq0wBPPjqf5hePhuJIj1Lx/OJYUAHAFiEN4bAvgEdAHQAXP2jCwA6ANBz7wyBfQQCANR19T9KLztGong7eV+BAADMxZ4h0AUAAQDquvr/n/QyNBKdsZn3GRTNIkBaZRHgvcV/lF4OjUQnbafj+8gwoAMAPLT4x9P+tP67ay/vQxAAgAeJK/+hYeisYaN7gwAAPPDqP678N41E523mfQkCADBV8R8bid4YCwEIAMBfFf74Vrl9xb+3IWDfmgAEAOBm8Y92f8wXe9hPf8W+Pcz7GgQAUPy/fZd8FH+Fof82cwgYGwra5jkAtKrm5wDkdnA8NU4xqNMkba/TZ+DUUKADAPUU/6uWv+Jfr3FjSgABAKoq/uNGy59LpgRojSkAWlXTFICWP/eYNKYE0AGA3hV/LX/uM25MCSAAQK+K/7jR8mc6pgRYGlMAtKrPUwBa/jzSpDElgA4AdK74a/nzWOPGlAACAHSq+I8bLX/mw5QACw0Ax4aBlvTq2MvP8o8vfYnNM9+ZlziW9uLY8l0CzDsAnBgGWtKbY0/LnyUYN6YEmHMA+GQYaEkvjj0tf5bIlABzDQBHhoGWdP7Y0/KnBd+nBAwFjzHIJzG3ArJ0Xb4FMH1mhull31U/LYt1NC/SZ+nEUDBLByAcGAqWrLPHXCr+8b3uHxV/ChDH4Md8TMJMAeCDoWDJOnnMpRPtu3zlr+VPKeJY3M/HJkztagogDqAvhoMletqlJ5xp+dMRpgR4WAcgn4gnhoMlmXSs+Gv50xWmBHhYAMjeGw6WpDPHmpY/HWRKgKkMbpzs4l7mkWFhgY7S1f92Bwr/sNHyp/tMCTBVByC8NSQsWPHHmJY/PWJKgB/66frf/Pc//z75aWVl6MTHgsTc/++FF/9om/6WtnW7i56IY/lv6dy+kc7x/2s4uDK44wQY80efG3OezFcs+ntW6uI/LX8qYUqA7259HXA+Qe8aGuZst+Dir+VPLUwJ8N1Pd/3D//7n3/80FcAcRev/H4UWfy1/amNKgG8G95wcXRXxWMep+G8VWPgj4Gr5U/3nszElUK0n9/z5dj5AYNaTS3G3/Gn5w3emBHQA7r1SipOlRYE8RMz3b5V2ZZFb/n+3e+CW39Ln9bVhEADuCgHapTzkyr+otmK+u+XQMQz3fna3u/SobhYcAJxA6fIJxLELQgC3PZn2/xgHQ17MNTFs/ECs9t8q8MSxp/jD1DbzZwYdgDuvqHbyAWJdAOHbsyNS4T8o7Y3lY3XfLoIHe1HiZ5oWOgA3ugFxUDzTDSAfA88KPlG8tIvAZ4c5BYAcAmJKIJ4YGLd5HRnK6sQ+j3nC3cLnCnWpwGeHeQaAa0Hg6utdt3UEqrnij3n+KP5dCH4ndhn47HDbYN7/wbziOuZdn+dXui/a+x/itWsrg/PxGGsARnYjTC3C/Qt3AggAjz0Bj/LJ95e0DRursUt3nJP/pzgJdOQqf5rj8CqUjvJxCNy+4o/P+weL/wAAAAAAAAAAAAAAAAAAAAAAAAAAAAAAAAAAAAAAAACAWv2fAAMAM1OTikQD0vUAAAAASUVORK5CYII=;" parent="1" vertex="1">
                    <mxGeometry x="3000" width="200" height="200" as="geometry"/>
                </mxCell>
                <mxCell id="12" style="edgeStyle=none;shape=connector;rounded=1;html=1;exitX=1;exitY=0.5;exitDx=0;exitDy=0;entryX=0;entryY=0.5;entryDx=0;entryDy=0;labelBackgroundColor=default;strokeColor=default;strokeWidth=4;fontFamily=Helvetica;fontSize=40;fontColor=#FFFFFF;endArrow=classic;startSize=12;endSize=12;" parent="1" source="11" target="2" edge="1">
                    <mxGeometry relative="1" as="geometry"/>
                </mxCell>
                <mxCell id="11" value="" style="shape=image;verticalLabelPosition=bottom;labelBackgroundColor=default;verticalAlign=top;aspect=fixed;imageAspect=0;image=data:image/png,iVBORw0KGgoAAAANSUhEUgAAAQAAAAEACAYAAABccqhmAAAABHNCSVQICAgIfAhkiAAAAAlwSFlzAAAG7AAABuwBHnU4NQAAABl0RVh0U29mdHdhcmUAd3d3Lmlua3NjYXBlLm9yZ5vuPBoAAB45SURBVHic7Z131B5VtYefDYEECSWhG0IXQgcvRhAIEkFpkeJlKSCiUuyiiJXlFURAQbggggUQUIqCCAgCARFDk5pLN9KLQUhCIJBKyr5/nPnIl6++37vPzJmyn7VmfWEtZs9vZt7zm31mztlHVBWnHojIWsCGwEadttWB5YGh2dbx76WBWdk2s9PfN4BngWeAp7PteVWdX+S5OMUgbgDVRESGAjsCuwAfBLYiNO48WEgwhDuACcAEVX0xp2M5BeIGUCFE5APAvoQG/15gUEI5zxHMYDzwZ1WdnVCL0yZuACVHRDYDDs629RPL6Y1ZwLXAZcDN3l2oDm4AJSRL748ADgO2SSxnoLwGXAGcrar/TC3G6Rs3gBIhIsOArwBHA8MTy7GiwJ+Ak1V1YmoxTs+4AZQAEVkDOAb4ArBCYjl5cBNwkqremVqIsyRuAAkRkcHAt4DvAsslllMENwJfUdVnUgtxAm4AiRCRPYCzCd/qm8Q84MfAj1V1bmoxTccNoGBEZB3gTGD/1FoS8wwhG7gxtZAm4wZQICJyBHAW8K7UWkrEpcDnVXVmaiFNxA2gALLPer8APplaS0l5EjhQVR9JLaRpLJVaQN0RkS2B+/HG3xcbA/eKyFGphTQNN4AcEZHDgXuBUam1VIAhwK9E5NIsY3IKwLsAOSEiJxM+7zkD5wFgT1WdllpI3XEDiIyILE3o7x+ZSMLrhD71q31srxA+x60OrNHDtmb2dySwQbHy3+FJ4MOq+kKi4zcCN4CIZAN7LgMOKPjQjwPXA38B7lbVhbECi8j6wN7APoRZiINjxW6Bl4GPqOpjBR6zUbgBREJEVgCuAcYWcLi5wG1kjb6op6SILA/sTjCEvYG1Cjjs68A4Vb2rgGM1DjeACIjIcsAthAIdeXIvcApwS+r59yIihJoERwKHk29tgtnAh1T1nhyP0UjcAIyIyCDgakKKnBdPA99V1T/meIy2EZFNCMaU5+jG6cDOqvpEjsdoHP4Z0ED2FDyf/Br/VODLwGZlbfwAqvovVT2AkAHllaoPB8aLyMic4jcSzwAMiMipwDdzCD0bOAM4VVXfyiF+rojIfoSMII/xD5OAnVT1tRxiNw43gDYRkWOA03MIfTEh3f9PDrELI/scejhwKrBS5PD3Aruq6pzIcRuHG0AbiMgHgb8SSmvHYgFhdtwvI8ZMjohsClxHKFcekwtU9YjIMRuHG8AAyar3PEQYLBOL6YTJMH+LGLM0iMhw4CrCOIKYHKqql0SO2SjcAAaAiCxF+NwX81v/JMJ37qcjxiwdIrIMcA5xR0jOBN6nqpMixmwU/hVgYBxP3MY/Hti+7o0fQFXnq+pRwNcJC43EYChwRTYOw2kDN4AWEZGxwHERQ54F7K2qMyLGLD2qeiYwDngzUsgtgf+NFKtxeBegBbIx/o8C74kQToEvqOqvIsSqLNmCJ+OBtSOEU8IgIR8uPEA8A2iNbxGn8QP8T9MbP0A2om8fwqpCVgQ4N/v06AwAzwD6IZsN9zhxynZfrqoHR4hTG0RkX8ICIjEeRl/PuhhOi7gB9IOIXE+Y+WblfmCMl8Lujoh8m1Aq3MpbwChVfTlCrEbgXYA+EJFxxGn8k4F9vfH3jKr+BPhthFArAKdFiNMYPAPoAxF5kDDl1cIcwguqByNIqi3Zi9ZbsU+pVmBzX5i0NTwD6AUR+Qj2xq/AYd74+0dV5xEqKVmLmwhei7Fl3AB6J8aP6IeqemWEOI1AVacQxghYFwk5KHt56/SDG0APiMgHgF2MYZ4ATowgp1Go6qPAycYwgwifbp1+8HcAPSAi12Ev8vFRVb0uhp6mISLvAp4C3m0IMw/YwL8I9I1nAF0QkXWxv/m/wxt/+2T1Do83hhlMqEfg9IEbQHcOJrxIsuDpp53fEGZKWvBBV/3gBtCdQ4z7X+XVa+1kaxt8zxhmlIhsG0NPXXED6ISIbANsbgixAP8EFQ1VvRr4hzGMZwF94AawJNan/69V9akoSpwOrN2pT2TVm50e8K8AnRCRfwMj2tx9NuGt86sRJTlEmY8xRlXviKWnTngGkCEio2i/8QPc7I0/N6zzBD4URUUNcQNYzBjj/tdHUeH0xHhgvmF/672tLW4Ai7H8SBS4IZYQZ0mysmmWFH57EVk2lp464QawGMvQ34lVX8ijAlgGVi0HvC+WkDrhBsA7VX8stek8/c8f6zX2bkAPuAEEdjDu7waQM1npdMvIQOs9riVuAIGNDfu+Avh8/2KwdAM2iaaiRrgBBDYy7HuD+mCKorBkWuuLyKBoSmqCG0DAsnDlhGgqnP64i/Y/By4DrBdPSj1wAwhYMgCfb14Q2QShKYYQsdZ2qA2NNwARWQlY1RDCR/8Vi+V6uwF0ofEGgD0tdAMoFsv1Xi+WiLrgBhBqybfLQmBaLCFOS1gMYMVoKmqCG0BYYrpdpqnqomhKnFawGIDlXtcSNwBY3rDvK9FUOK1iueaWe11L3ABsTwXv/xePZwARcQOwPRXcAIrHcs09A+iCGwC8y7CvvwAsHss1t9zrWuIGAG8b9rV8QXDaw3LNLfe6lrgB2NahWyOaCqdVLNfcuuZg7XADgFmGfd0AisdyzS33upa4AXgGUDU8A4iIG4BnAFXDM4CIuAHYngpDsslETnGsadjXM4AuuAHYp/N6FlAslus9OZqKmuAGAP8hrOrTLm4AxWK53r5sWxcabwBZOa9nDSHcAIrFDSAijTeAjKcN+/ry0wUhIhtjG85ruc+1xA0gYPlh7BNNhdMflmv9sqr6V4AuuAEELAawlYiMjKbE6Ytxhn09/e8BN4DAROP+lqWrnRYQkZWBnQwhfO2GHnADCEzE9o3YuwH5swdgqet/eywhdcINgHfKTd9tCDFWRJaLpcfpEUv6r9hWF64tbgCLsTwhlgPGxhLiLImILA3saQjxuKpOj6WnTrgBLMaaIno3ID92BIYZ9vf0vxfcABZzHzDXsP84X3suNz5m3N+Xb+sFN4AMVZ2HbfXZEcBRkeQ4GSIyAjjSEGIOcGMkObXDDWBJLjHu/wMR8cqzcTme8I6lXa5T1bciaakdbgBLciPwmmH/1YFjI2lpPCKyKfAZY5hLY2ipK24AnVDV+cAVxjDHiohPEIrDycDShv1fB26KpKWWuAF0x9oNWJ6QtjoGROQDwH7GMFeqqlcC7gMJs2GdzojIE8CmhhALgM1V9clIkhqHiNyBbegvwPaqem8MPXXFM4Ce+Ylx/0HAKTGENBER+Sj2xn+bN/7+8QygB0RkGcIMwXWMoXZX1b9GkNQYsq8oDwCbGEPtpqq3RpBUazwD6IHsZeBPI4T6g4hsFCFOIxCRpQhv7a2N/15v/K3hBtA75wNTjTGGA9d55eCWOQX4aIQ4J0WI0QjcAHpBVecAZ0QINYqQCVg+Z9UeETkM+FaEUA8D10eI0wj8HUAfiMgQ4HFggwjhzlLVr0WIUztEZEfgb8CyEcLtoqo++adFPAPoA1WdC3w1UrijRcQypr2WiMh6wNXEafyXeOMfGJ4BtICIXAPsGyHUfMKXAZ+dBojICoRCLFtECDcD2ERVX40QqzF4BtAaRxNmlVlZBrhKREZFiFVpRGRZ4PfEafwA3/fGP3DcAFpAVV8AfhQp3CrAP0Rkt0jxKoeIrEbo8+8VKeRDwLmRYjUK7wK0SPYW/1Zgl0ghFwBfU9VzIsWrBCKyJaHuwrqRQs4CtlPVSZHiNQrPAFokKxz6CSBWmjkI+LmI/KIplYREZByhzx+r8QN8zht/+7gBDABVfQU4CFgYMezngfEiMjxizNIhIscC1wAxC6acp6o+39+AdwHaQESOI947gQ6eBsbV7WmWvez7JfbCHl15mDDbz1LHsfG4AbSBiAjwZ+JXAp4BfFpVr4kcNwkisg5hbL91Zl9X3gBGq6ov92XEuwBtkC0p/gkg9nTTlYCrReQ2EdkucuzCEJFhInIa8CTxG/8cQqbkjT8CngEYEJFVCCvOWIqH9IYCfwCOU9Vnc4gfnWzo9FeA72Kr498bC4EDVPXPOcRuJG4ARrKVge8G1s7pEG8DvwBOVFVLwdLcyKbxfhI4EXsNhb74rKpemGP8xuEGEIGseu2dhOm/eTED+DHwM1WdneNxBoSI7EGooLRVzof6jqpaKzU5XXADiETWZ7+JMNIvT2YDfwX+AvxFVSfnfLwlyBZBHUt4Abo3MLKAw56gqscXcJzG4QYQkWyM/80U0yg6eIhgBtcD96nqotgHyLo5exMa/VhsC3UMhEXAV5s2WrJI3AAikzWWmwmFQIpmKiELeYIwYrHzNqW3EtnZZ83hwBrZtmb2dySwG/mn9z3xNnCoqlrXaXD6wA0gB7KvAzcC70utpQuvE8zgFWAeYSWjNbK/ZRqOPBPY3wuq5o8bQE5k1W0vA8al1lIxXiI0/gdTC2kCPhAoJ1R1JqGIyLGEQiBO//wF2NYbf3F4BlAAIrIDofhFnt/Iq8wC4DjgNPUfZKG4ARRENtvvIrxL0JWXgE+o6t2phTQR7wIUhKpOJ3QJjsS2BHldUOA8YGtv/OnwDCAB2VeCnwCfBSSxnBQ8DHxBVf+RWkjT8QwgAar6mqoeQZgp93BqPQUyEzgG+C9v/OXAM4DEZLUGP0tYFaeu6wjOAS4Aflz00GWnb9wASkJmBAcC3wG2TiwnFjOAcwirIk1JLcbpjhtACRGRvQgZwRiq+Y5gMvBz4FxVfTO1GKd33ABKTLZs1sHZtnlSMf3zOnAVYfTjhDwmJTnxcQOoCCKyNXAI4VPixonldDAduAW4HLixt8lGTnlxA6ggIrIWYYGSji2PkmQ9MQ24HZgA/B141EfuVRs3gBogIqsTXhxuBGyY/d2IsKz5QOfuLyKMznuGUKq8Y5sETPIGXy/cAFogW7lnNcK02Y6ps/er6rSkwvohm+e/ArA8YUGOoZ3+vTRhWa1ZhO/zHX/fUtXKTF7KznFT4D2EEZZTgFdVdUZSYRXBDSBDRLYAdgfWZ/Ec+Y758sPp+W38k4SCoDcDf/AXX8WQdYEOB3YEtgdW7uF/m0cwg46tozDKg8AtqvpGMWrLTWMNQERWIlS72SPbrFV9HwKOUdXbrNqcnsnqER4LfJuQybTLQuAeQtGWm4CJTe3aNMYAslRxG2BPQoPfgXyq4FwLHKuqT+cQu5Fk9+4Q4BTyKb8+BRhPMIOby961i0ntDSD78RwI/ADYrKDDzgfOJtTy91TTgIjsBJxBceXVFgCXEO5dJRZksVBbA8ga/scIDX+LRDJeAb6sqlclOn5lEZGVgZ8S+vopWAD8FviRqj6XSEPu1M4Asoa/P3A8sGVaNe/wJ4IR/Ce1kCogIgcQhhKvlVoLIZu7mGAEL6QWE5taGYCI7Edo+GWcTPMG8A1V/U1qIWUle7t/DsHAy8Z84ELgJFV9MbWYWNTCALI3+hcThsmWnVuBo5rQvxwIInIEcBo9f9IrE7MI9++y1EJiUHkDEJGtCJNQqjSXfjbwfeDMpo8dEJGNgF8Du6bWMkDOIXz2rfT8h0obgIgcRlg5t6ilqmJzH3C4qj6WWkjRZPUPvkHoslX1/t0LHKiqL6UW0i6VNAARGQz8DDgqtZYIzCes+vsTVZ2VWkwRiMhognG/N7WWCEwDDlbVW1ILaYfKGYCIrAv8EdgutZbIvAqcBPyq6mllb2TLqJ9EOV/yWVhE+Nx8UtVGFFbKAERkQ8LY+9VTa8mRF4ATgN+q6sLUYmIgIusQzulQwiSkunK+qh6ZWsRAqIwBiMhqhMZfpZd9FiYR+sd/qtLsvM6IyAjgm8DngcGJ5RTFCap6fGoRrVIJAxCR5YG/AaMTSZhLqHM3mbBk9voFHnsqcClwkaqWvoS4iAwhpPifJky2Kqr0vAJ3EKY6jyBkianqKR6lquclOvaAKL0BZHPxrwX2KuBwCwlZxg2E2X2TgcnZqj4deoYQCnZ+h+LfXj9EWF7sMlWdWvCx+yRb//DTwMeBlQo+/CPAl1T1zk56liGMJBxBWJNxV8JvaGQBehYC+6nq9QUcy4aqlnoDzie4e17bFMKY748Dwwaga33CarZ5auttexu4GjgIeHei+zKIMEHnOOBfia7DW8DRwNID0L0FwcD/TvgCk5e2WcD7U7effq9HagH93KwTcrxBzxImmixj1HgIIU1P0QA6tqcJw1Q/A2yY070YDOxMaPDjs8aX8pxvBNY1ntM6hM+R83LSOBV4T+p21NdW2i6AiOwLXJND6GcIn6J+p6oLYgQUkVWBswjlu8vAy4Tinf/I/j2V8L16GvBab+edvWtZlVD+bNVs24SwPsFoYEjuyvvnNeDrqvq7WAFFZCShS3c48V9W/hPYVlXnRY4bh9QO1IszDyP8cGO68RRCH3VQjrr3Al6MrDv2tohQzrujnNnETPOcEmjrb7scWC3H+zeCsGJxbN2npG5TvZ5zagG93IiLIt+AO4ERBWlfgTCVdVEJGkxdtpeAfQr8/X2cuF2cBYQFUZO3rdIbAKFcV8wfz+nk+NTv4zx2JKR/qRtPlbdFwLnAignu3yjg8Yjn8gjG9021NwBgReKl0DOA/ROfz2DgRMJb+9SNqWrbJGDnxPdvecJSZ7HO6fjUbazbOaYW0OWC/yrShZ4N7JD6fDqd1xaEsQWpG1UVtjeA7wGDU9+3Tvfvwkjn9jawVerzWeLcUgvodJHHEqff3DEII/k59XCOY4C7StDIyrjNIdQAHJ76PvVw3wYRKgbHOM8HSdAl7fXcUgvodIGfjHSBv5j6fFo4348Cj5ag0ZVhWwBcAKyd+r70c8+GZo03xjkfnfp83jmv1AKyi/vZSBe2tJ9bejjnpQiz454rQSNMtV0FjEp9LwZwz9aMdL9eAZZLfT6qJRgIlI3Z/hf2CTbXEl76pT2hASIiyxKM4HDCYiV1ZyZwJfALVb0/tZiBktU0mIh9UNSxqnp6BEkmymAARxJqwlmYDmymqq9GkJQMERlFGM57KOUoiR2T2wkv067Uilc+EpFjCQVMLUwBNkh9LZIaQPb0exJY1xjqUFW9JIKkUpDVy9uDYAbjgGXTKmqblwjVmi9S1WdSi4lFdn/uxj49/duqemoESW2T2gA+T5iMYeF6VR0XQ08ZyeYZHAIcBmybWE4rzAL+THja36o1rXosIpsRugKWuQPTgPVVdWYcVQMnmQFkhT2fwjY/ewYh9X85jqpyk5nBztk2hrDYaeoSW9MJQ63vIKT5EzXSJKuyIyLHAT8yhjlOVU+OoacdUhrAFwm11S0cqarnx9BTRURkBeADBDPYmZCS5l16q2OmYUeDf7xqL15jkRWreQDbSlTTCdOak2QBKQ3gUWyLdv6L8PSvZYrZDllWNZqQGazGktN6O/69Cr0viz6LJacOT+3099/AXeorGi2BiOwNWCv/HKGqF8TQM1CSGICIbAdYPwEdojVZnqlIssVTV2axMcwla+iqOjeltqoiIvdhW778LlXdKZaegZDKAM4BvmgIMQnY3J/+ThkQkb0I5eEsbKyqT8XQMxCKqtj6DlmaepAxzA+98TtlQVVvICzzZuHTEaQMmMINgLCC7zDD/v8E/hBJi+PE4gfG/T8lIoW3xxQG8Bnj/if6098pG6p6E2Gx0HZZG9g9kpyWKdQAspViPmwIMYWwLqDjlBHroDbrw3HAFJ0BHGQ85iVa0WWynEbwR0ItwXbZT0SGxhLTCkUbgHV1nwujqHCcHMgm9lxhCDEY+FAkOS1RmAFkNed3NIR4QFUfi6XHcXLC+pDaI4qKFikyA9gV26y238QS4jh5oap3EWa4tkttDcByYnMJi0I4ThWwZAHrZXUhCqFIA/iIYd8JqvpGNCWOky/WJe0KywIKMQAR2RDYyBDi9lhaHCdvVHUS4ZN1u+wZS0t/FJUBWJ7+ABOiqHCc4rA8tMaIyHLRlPRBUQYw1rDvHOwzBx2naCwPrSHYvpi1TFEG8H7Dvveo6tvRlDhOMVi7rZY20zK5G4CIrEUY59wunv47VeRRQrWfdrEWHG2JIjIA64n4C0CncmRl0u40hHADICymeE8sIY5TMJbsdU0RsRTMbYmyG8B9qjonmhLHKRZr9zX3LCBXA8jqz1lqpXn671SZh4A3DftX2wCAjYGVDPv7C0CnsqjqQsJy8O1SeQOwPP0XEJZfcpwqY8lit8uy6NwoIgNol4kpl0xynEhYstih5LxIbN4GsIFhX0//nTrwADDbsP/6sYT0RN4GYBFvKbDoOKUgK2E30RBivUhSeqTMBlCb5aSdxmP5LVczAxCRIcCahhDPR5LiOKl53rBvNQ2AkLq0+wbzDS8A4tSI5wz7rhdLRE/kaQCWF4CWC+Y4ZcPye65sBmAR7gbg1AnL73mkiCwdTUkX3AAcJ38mEya2tcMgILdJQW4AjpMz2VqWLxpCrBdJSjfcABynGEr5HsANwHGKoTkGICLDgJUNIZ6PJMVxykIpPwXmlQFYHOtVLwLi1JDnDftWKwPA03/H6UpzugC4AThOVyy/67VExLKwbq/kZQDDDPu6ATi1Q1WnALPa3H0pbJW1+gycB5ZljV6LpsJxyoVlnYBclgrLywCGGPadG02F45QLy8vtxhiAfwFw6kpjDMAi1jMAp640xgA8A3Cc7jTGADwDcJzuNMYAPANwnO5YqgNXygA8A3Cc7ngG0AKeATh1pTEG4BmA43SnMQbgGYDjdKcxBuAZgON0pzEG4BmA43SnMQbgGYDjdKcxBmBpxLnMe3acEmD5bc+LpqITeRnAVMO+q0ZT4TjlwvLbnhJNRSfKaACrRFPhOOXC8ttujAF4BuDUFctv29KmesUNwHGKw7sALeBdAKeueBegBUZEU+E4JUFEBHi3IURjDGDnaCocpzxsQfvVsmfltVhOGQ1gtIgsH02J45SD3Qz75vL0h/wMYLJh32XwLMCpHx8y7GtpT32SlwE8DLxu2H9sLCGOkxoRGQTsYghxWywtXcnFAFR1EXCLIYQbgFMn3g8MNew/PpaQruSVAYBN9LYiskk0JY6TloMM+84A7o0lpCt5GsDNhn2XAn4QS4jjpEJERgBHGELcqqoLYunpSm4GoKr/Bh43hPi4iGwWS4/jJOK7wGDD/jfFEtITeWYAYOsGeBbgVJoIT3/Isf8P5TYAgANFZIsoShyneKxP/0mq+mIsMT2RtwHcjq04iADniYjlIjpO4YjIzsBRxjC5Pv0hZwNQ1bnAZcYw2wMXRJDjOIUgIhsCVxMGtbWLAhfGUdQ7eWcAACdgL2d0iIh8L4YYx8kTEVkJuA77rNYrVPXhCJL6JHcDyPowv4wQ6kcickCEOI6TC9mIvyuBTY2hFgL/Y1fUP0VkAAAnAzONMQT4nYjsH0GP40RFRIYClwO7Rwh3sao+GSFOvxRiAKo6BTgzQqh3AX8SkdNFxNK/cpxoiMjmwP3Af0cI9zbwwwhxWqKoDADgp8D0SLGOASaIyNqR4jlOW4jIp4D7gFGRQv5aVV+IFKtfCjMAVZ0BnBox5A7A/4nIAVm1FccpDBFZRUTOAy4mZKYxmA2cFClWSxSZAQCcDcR0t1WBq4CHReRgEVk6YmzH6YaIjBCRMwi/Y+sov66crqqvRI7ZJ6KqRR4PEdkauBPb9MjeeBY4DbgoG4PgOFEQkY2AbwGHkc/qVTcC41R1YQ6xe6VwAwAQkX2Aa8kvA5kO/J0wEnEC8EhWo8BxWkJEVgR2AsZk22ggrwzzMWBHVX0zp/i9ksQAAETk68AZBR1uBiHruAd4lWAQS2yqOqsgLU5isq7iysDwTtuw7O+GhAa/DcV0kacAo4t88deZZAYAICK/BD6XTIDjpGUusKuq3pNKQGoDGETo+1gqpjpOVTlIVX+fUkDRXwGWIKt0ciAwKaUOx0nA8akbPyQ2AABVfYOQASRLgxynQBYB31fVE1ILgcRdgM6IyLKEl4JfSq3FcXJiGiHt/2tqIR2UxgA6EJFDgF8Tb3SV45SBe4ADs1qZpSF5F6ArqnopoY56IbOhHKcAfg6MKVvjhxJmAB1kAzEuBLwGgFNVZgFHqurlqYX0RukygA5U9U1V/RhhvPVzqfU4zgBQwhyV7crc+KHEGUBnsvECBwPfA3zFIKesLAR+D5ysqk+kFtMKlTCADkRkKULRheOArRLLcZwO5gO/BU5R1WdSixkIlTKADrL5/+MIRjA6sRynucwFzgdOVdWXUotph0oaQGdEZBRhNeGxwAexV2N1nN5Qwsy9v2XbhKzQTWWpvAF0JssMtmaxIewMrJhUlFN1nmJxg79NVacm1hOVWhlAV7Jpn9sCIwnVg1YFVuv0787bColkOsWzkDANfFqXbWqX/36sqql9q/w/vMirmMKNJZAAAAAASUVORK5CYII=;" parent="1" vertex="1">
                    <mxGeometry x="-600" width="200" height="200" as="geometry"/>
                </mxCell>
                <mxCell id="15" value="&lt;font color=&quot;#000000&quot;&gt;Audio&lt;/font&gt;" style="text;html=1;strokeColor=none;fillColor=none;align=left;verticalAlign=middle;whiteSpace=wrap;rounded=0;strokeWidth=4;fontFamily=Helvetica;fontSize=40;fontColor=#FFFFFF;fontStyle=1" parent="1" vertex="1">
                    <mxGeometry x="-350" y="100" width="175" height="75" as="geometry"/>
                </mxCell>
                <mxCell id="16" value="&lt;font color=&quot;#000000&quot;&gt;Text&lt;/font&gt;" style="text;html=1;strokeColor=none;fillColor=none;align=left;verticalAlign=middle;whiteSpace=wrap;rounded=0;strokeWidth=4;fontFamily=Helvetica;fontSize=40;fontColor=#FFFFFF;fontStyle=1" parent="1" vertex="1">
                    <mxGeometry x="650" y="100" width="175" height="75" as="geometry"/>
                </mxCell>
                <mxCell id="17" value="&lt;font color=&quot;#000000&quot;&gt;Command&lt;/font&gt;" style="text;html=1;strokeColor=none;fillColor=none;align=left;verticalAlign=middle;whiteSpace=wrap;rounded=0;strokeWidth=4;fontFamily=Helvetica;fontSize=40;fontColor=#FFFFFF;fontStyle=1" parent="1" vertex="1">
                    <mxGeometry x="1650" y="100" width="225" height="75" as="geometry"/>
                </mxCell>
                <mxCell id="19" value="&lt;font color=&quot;#000000&quot;&gt;Execute CMD&lt;/font&gt;" style="text;html=1;strokeColor=none;fillColor=none;align=left;verticalAlign=middle;whiteSpace=wrap;rounded=0;strokeWidth=4;fontFamily=Helvetica;fontSize=40;fontColor=#FFFFFF;fontStyle=1" parent="1" vertex="1">
                    <mxGeometry x="2625" y="100" width="275" height="75" as="geometry"/>
                </mxCell>
                <mxCell id="21" value="" style="endArrow=none;dashed=1;html=1;strokeWidth=6;rounded=1;labelBackgroundColor=default;strokeColor=default;fontFamily=Helvetica;fontSize=40;fontColor=#000000;startSize=12;endSize=12;shape=connector;" parent="1" edge="1">
                    <mxGeometry width="50" height="50" relative="1" as="geometry">
                        <mxPoint x="-600" y="300" as="sourcePoint"/>
                        <mxPoint x="3200" y="300" as="targetPoint"/>
                    </mxGeometry>
                </mxCell>
                <mxCell id="22" value="&lt;font color=&quot;#000000&quot; style=&quot;font-size: 48px;&quot;&gt;Protocols&lt;/font&gt;" style="text;html=1;strokeColor=none;fillColor=none;align=left;verticalAlign=middle;whiteSpace=wrap;rounded=0;strokeWidth=4;fontFamily=Helvetica;fontSize=48;fontColor=#FFFFFF;fontStyle=1" parent="1" vertex="1">
                    <mxGeometry x="-600" y="400" width="300" height="200" as="geometry"/>
                </mxCell>
                <mxCell id="23" value="" style="endArrow=none;dashed=1;html=1;strokeWidth=6;rounded=1;labelBackgroundColor=default;strokeColor=default;fontFamily=Helvetica;fontSize=40;fontColor=#000000;startSize=12;endSize=12;shape=connector;" parent="1" edge="1">
                    <mxGeometry width="50" height="50" relative="1" as="geometry">
                        <mxPoint x="-600" y="700" as="sourcePoint"/>
                        <mxPoint x="3200" y="700" as="targetPoint"/>
                    </mxGeometry>
                </mxCell>
                <mxCell id="24" value="" style="endArrow=none;dashed=1;html=1;strokeWidth=6;rounded=1;labelBackgroundColor=default;strokeColor=default;fontFamily=Helvetica;fontSize=40;fontColor=#000000;startSize=12;endSize=12;shape=connector;" parent="1" edge="1">
                    <mxGeometry width="50" height="50" relative="1" as="geometry">
                        <mxPoint x="-600" y="1100" as="sourcePoint"/>
                        <mxPoint x="3200" y="1100" as="targetPoint"/>
                    </mxGeometry>
                </mxCell>
                <mxCell id="25" value="" style="endArrow=none;dashed=1;html=1;strokeWidth=6;rounded=1;labelBackgroundColor=default;strokeColor=default;fontFamily=Helvetica;fontSize=40;fontColor=#000000;startSize=12;endSize=12;shape=connector;" parent="1" edge="1">
                    <mxGeometry width="50" height="50" relative="1" as="geometry">
                        <mxPoint x="-600" y="1800" as="sourcePoint"/>
                        <mxPoint x="3200" y="1800" as="targetPoint"/>
                    </mxGeometry>
                </mxCell>
                <mxCell id="26" value="&lt;font color=&quot;#000000&quot; style=&quot;font-size: 48px;&quot;&gt;Base Classes&lt;/font&gt;" style="text;html=1;strokeColor=none;fillColor=none;align=left;verticalAlign=middle;whiteSpace=wrap;rounded=0;strokeWidth=4;fontFamily=Helvetica;fontSize=48;fontColor=#FFFFFF;fontStyle=1" parent="1" vertex="1">
                    <mxGeometry x="-600" y="800" width="300" height="200" as="geometry"/>
                </mxCell>
                <mxCell id="27" value="&lt;font color=&quot;#000000&quot; style=&quot;font-size: 48px;&quot;&gt;Concrete Classes&lt;/font&gt;" style="text;html=1;strokeColor=none;fillColor=none;align=left;verticalAlign=middle;whiteSpace=wrap;rounded=0;strokeWidth=4;fontFamily=Helvetica;fontSize=48;fontColor=#FFFFFF;fontStyle=1" parent="1" vertex="1">
                    <mxGeometry x="-600" y="1300" width="300" height="300" as="geometry"/>
                </mxCell>
                <mxCell id="28" value="Whisper STT" style="rounded=1;whiteSpace=wrap;html=1;strokeWidth=4;fontSize=40;fontStyle=1;glass=1;fillColor=#dae8fc;strokeColor=#6c8ebf;labelBorderColor=none;" parent="1" vertex="1">
                    <mxGeometry y="1200" width="600" height="200" as="geometry"/>
                </mxCell>
                <mxCell id="29" value="Regex TTC" style="rounded=1;whiteSpace=wrap;html=1;strokeWidth=4;fontSize=40;fontStyle=1;glass=1;fillColor=#d5e8d4;strokeColor=#82b366;labelBorderColor=none;" parent="1" vertex="1">
                    <mxGeometry x="1000" y="1200" width="600" height="200" as="geometry"/>
                </mxCell>
                <mxCell id="30" value="Ubuntu CMD Executor" style="rounded=1;whiteSpace=wrap;html=1;strokeWidth=4;fontSize=40;fontStyle=1;glass=1;fillColor=#e1d5e7;strokeColor=#9673a6;labelBorderColor=none;" parent="1" vertex="1">
                    <mxGeometry x="2000" y="1200" width="600" height="200" as="geometry"/>
                </mxCell>
                <mxCell id="31" value="Vosk STT" style="rounded=1;whiteSpace=wrap;html=1;strokeWidth=4;fontSize=40;fontStyle=1;glass=1;fillColor=#dae8fc;strokeColor=#6c8ebf;labelBorderColor=none;" parent="1" vertex="1">
                    <mxGeometry y="1500" width="600" height="200" as="geometry"/>
                </mxCell>
                <mxCell id="32" value="OpenAI TTC" style="rounded=1;whiteSpace=wrap;html=1;strokeWidth=4;fontSize=40;fontStyle=1;glass=1;fillColor=#d5e8d4;strokeColor=#82b366;labelBorderColor=none;" parent="1" vertex="1">
                    <mxGeometry x="1000" y="1500" width="600" height="200" as="geometry"/>
                </mxCell>
                <mxCell id="33" value="Windows CMD Executor" style="rounded=1;whiteSpace=wrap;html=1;strokeWidth=4;fontSize=40;fontStyle=1;glass=1;fillColor=#e1d5e7;strokeColor=#9673a6;labelBorderColor=none;" parent="1" vertex="1">
                    <mxGeometry x="2000" y="1500" width="600" height="200" as="geometry"/>
                </mxCell>
                <mxCell id="34" value="Command Executor&lt;br&gt;Protocol" style="rounded=1;whiteSpace=wrap;html=1;strokeWidth=4;fontSize=40;fontStyle=0;glass=1;fillColor=none;strokeColor=#9673a6;labelBorderColor=none;" parent="1" vertex="1">
                    <mxGeometry x="2000" y="400" width="600" height="200" as="geometry"/>
                </mxCell>
                <mxCell id="35" value="Text To Command&lt;br&gt;Protocol" style="rounded=1;whiteSpace=wrap;html=1;strokeWidth=4;fontSize=40;fontStyle=0;glass=1;fillColor=none;strokeColor=#82b366;labelBorderColor=none;" parent="1" vertex="1">
                    <mxGeometry x="1000" y="400" width="600" height="200" as="geometry"/>
                </mxCell>
                <mxCell id="36" value="Speech To Text&lt;br&gt;Protocol" style="rounded=1;whiteSpace=wrap;html=1;strokeWidth=4;fontSize=40;fontStyle=0;glass=1;fillColor=none;strokeColor=#6c8ebf;labelBorderColor=none;" parent="1" vertex="1">
                    <mxGeometry y="400" width="600" height="200" as="geometry"/>
                </mxCell>
                <mxCell id="37" value="Command Executor&lt;br&gt;Base Class" style="rounded=1;whiteSpace=wrap;html=1;strokeWidth=4;fontSize=40;fontStyle=0;glass=0;fillColor=#e1d5e7;strokeColor=#9673a6;labelBorderColor=none;" parent="1" vertex="1">
                    <mxGeometry x="2000" y="800" width="600" height="200" as="geometry"/>
                </mxCell>
                <mxCell id="38" value="Text To Command&lt;br&gt;Base Class" style="rounded=1;whiteSpace=wrap;html=1;strokeWidth=4;fontSize=40;fontStyle=0;glass=0;fillColor=#d5e8d4;strokeColor=#82b366;labelBorderColor=none;" parent="1" vertex="1">
                    <mxGeometry x="1000" y="800" width="600" height="200" as="geometry"/>
                </mxCell>
                <mxCell id="39" value="Speech To Text&lt;br&gt;Base Class" style="rounded=1;whiteSpace=wrap;html=1;strokeWidth=4;fontSize=40;fontStyle=0;glass=0;fillColor=#dae8fc;strokeColor=#6c8ebf;labelBorderColor=none;" parent="1" vertex="1">
                    <mxGeometry y="800" width="600" height="200" as="geometry"/>
                </mxCell>
            </root>
        </mxGraphModel>
    </diagram>
</mxfile>